<svg width="171" height="51" viewBox="0 0 171 51" fill="none" xmlns="http://www.w3.org/2000/svg">
<path d="M43.2304 7.46871C38.4474 2.6524 32.088 0 25.3237 0C18.5595 0 12.2001 2.6524 7.41709 7.46871C2.63406 12.285 0 18.6887 0 25.5C0 32.3113 2.63416 38.7149 7.41709 43.5313C12.2 48.3477 18.5595 51 25.3237 51C32.088 51 38.4474 48.3476 43.2304 43.5313C48.0134 38.715 50.6475 32.3113 50.6475 25.5C50.6475 18.6887 48.0133 12.2851 43.2304 7.46871Z" fill="#33CC95"/>
<g clip-path="url(#clip0)">
<path d="M26.0473 10.2V42.2571" stroke="white" stroke-width="2" stroke-linecap="round" stroke-linejoin="round"/>
<path d="M33.2826 16.0286H22.4296C21.0864 16.0286 19.7981 16.5659 18.8483 17.5223C17.8985 18.4788 17.3649 19.776 17.3649 21.1286C17.3649 22.4812 17.8985 23.7784 18.8483 24.7348C19.7981 25.6913 21.0864 26.2286 22.4296 26.2286H29.665C31.0082 26.2286 32.2965 26.7659 33.2463 27.7223C34.1961 28.6788 34.7297 29.976 34.7297 31.3286C34.7297 32.6812 34.1961 33.9784 33.2463 34.9348C32.2965 35.8913 31.0082 36.4286 29.665 36.4286H17.3649" stroke="white" stroke-width="2" stroke-linecap="round" stroke-linejoin="round"/>
</g>
<path d="M78.7923 18.364V31H75.7143V23.422L72.8883 31H70.4043L67.5603 23.404V31H64.4823V18.364H68.1183L71.6643 27.112L75.1743 18.364H78.7923ZM91.2657 20.956L84.9657 35.77H81.6537L83.9577 30.658L79.8717 20.956H83.3097L85.6317 27.238L87.9357 20.956H91.2657ZM110.503 18.364V31H107.425V23.422L104.599 31H102.115L99.2712 23.404V31H96.1932V18.364H99.8292L103.375 27.112L106.885 18.364H110.503ZM117.289 31.144C116.305 31.144 115.417 30.934 114.625 30.514C113.845 30.094 113.227 29.494 112.771 28.714C112.327 27.934 112.105 27.022 112.105 25.978C112.105 24.946 112.333 24.04 112.789 23.26C113.245 22.468 113.869 21.862 114.661 21.442C115.453 21.022 116.341 20.812 117.325 20.812C118.309 20.812 119.197 21.022 119.989 21.442C120.781 21.862 121.405 22.468 121.861 23.26C122.317 24.04 122.545 24.946 122.545 25.978C122.545 27.01 122.311 27.922 121.843 28.714C121.387 29.494 120.757 30.094 119.953 30.514C119.161 30.934 118.273 31.144 117.289 31.144ZM117.289 28.48C117.877 28.48 118.375 28.264 118.783 27.832C119.203 27.4 119.413 26.782 119.413 25.978C119.413 25.174 119.209 24.556 118.801 24.124C118.405 23.692 117.913 23.476 117.325 23.476C116.725 23.476 116.227 23.692 115.831 24.124C115.435 24.544 115.237 25.162 115.237 25.978C115.237 26.782 115.429 27.4 115.813 27.832C116.209 28.264 116.701 28.48 117.289 28.48ZM130.298 20.848C131.474 20.848 132.41 21.232 133.106 22C133.814 22.756 134.168 23.8 134.168 25.132V31H131.108V25.546C131.108 24.874 130.934 24.352 130.586 23.98C130.238 23.608 129.77 23.422 129.182 23.422C128.594 23.422 128.126 23.608 127.778 23.98C127.43 24.352 127.256 24.874 127.256 25.546V31H124.178V20.956H127.256V22.288C127.568 21.844 127.988 21.496 128.516 21.244C129.044 20.98 129.638 20.848 130.298 20.848ZM145.774 25.816C145.774 26.104 145.756 26.404 145.72 26.716H138.754C138.802 27.34 139 27.82 139.348 28.156C139.708 28.48 140.146 28.642 140.662 28.642C141.43 28.642 141.964 28.318 142.264 27.67H145.54C145.372 28.33 145.066 28.924 144.622 29.452C144.19 29.98 143.644 30.394 142.984 30.694C142.324 30.994 141.586 31.144 140.77 31.144C139.786 31.144 138.91 30.934 138.142 30.514C137.374 30.094 136.774 29.494 136.342 28.714C135.91 27.934 135.694 27.022 135.694 25.978C135.694 24.934 135.904 24.022 136.324 23.242C136.756 22.462 137.356 21.862 138.124 21.442C138.892 21.022 139.774 20.812 140.77 20.812C141.742 20.812 142.606 21.016 143.362 21.424C144.118 21.832 144.706 22.414 145.126 23.17C145.558 23.926 145.774 24.808 145.774 25.816ZM142.624 25.006C142.624 24.478 142.444 24.058 142.084 23.746C141.724 23.434 141.274 23.278 140.734 23.278C140.218 23.278 139.78 23.428 139.42 23.728C139.072 24.028 138.856 24.454 138.772 25.006H142.624ZM157.658 20.956L151.358 35.77H148.046L150.35 30.658L146.264 20.956H149.702L152.024 27.238L154.328 20.956H157.658Z" fill="white"/>
<path d="M78.7923 18.364H79.7923V17.364H78.7923V18.364ZM78.7923 31V32H79.7923V31H78.7923ZM75.7143 31H74.7143V32H75.7143V31ZM75.7143 23.422H76.7143L74.7773 23.0726L75.7143 23.422ZM72.8883 31V32H73.5826L73.8252 31.3494L72.8883 31ZM70.4043 31L69.4677 31.3506L69.7109 32H70.4043V31ZM67.5603 23.404L68.4968 23.0534L66.5603 23.404H67.5603ZM67.5603 31V32H68.5603V31H67.5603ZM64.4823 31H63.4823V32H64.4823V31ZM64.4823 18.364V17.364H63.4823V18.364H64.4823ZM68.1183 18.364L69.045 17.9883L68.7919 17.364H68.1183V18.364ZM71.6643 27.112L70.7375 27.4877L71.669 29.7856L72.5923 27.4844L71.6643 27.112ZM75.1743 18.364V17.364H74.498L74.2462 17.9916L75.1743 18.364ZM77.7923 18.364V31H79.7923V18.364H77.7923ZM78.7923 30H75.7143V32H78.7923V30ZM76.7143 31V23.422H74.7143V31H76.7143ZM74.7773 23.0726L71.9513 30.6506L73.8252 31.3494L76.6512 23.7714L74.7773 23.0726ZM72.8883 30H70.4043V32H72.8883V30ZM71.3408 30.6494L68.4968 23.0534L66.6237 23.7546L69.4677 31.3506L71.3408 30.6494ZM66.5603 23.404V31H68.5603V23.404H66.5603ZM67.5603 30H64.4823V32H67.5603V30ZM65.4823 31V18.364H63.4823V31H65.4823ZM64.4823 19.364H68.1183V17.364H64.4823V19.364ZM67.1915 18.7397L70.7375 27.4877L72.591 26.7363L69.045 17.9883L67.1915 18.7397ZM72.5923 27.4844L76.1023 18.7364L74.2462 17.9916L70.7362 26.7396L72.5923 27.4844ZM75.1743 19.364H78.7923V17.364H75.1743V19.364ZM91.2657 20.956L92.1859 21.3474L92.7776 19.956H91.2657V20.956ZM84.9657 35.77V36.77H85.6271L85.8859 36.1614L84.9657 35.77ZM81.6537 35.77L80.742 35.3591L80.1061 36.77H81.6537V35.77ZM83.9577 30.658L84.8694 31.0689L85.0485 30.6715L84.8793 30.2699L83.9577 30.658ZM79.8717 20.956V19.956H78.3655L78.9501 21.3441L79.8717 20.956ZM83.3097 20.956L84.2477 20.6093L84.0062 19.956H83.3097V20.956ZM85.6317 27.238L84.6937 27.5847L85.6353 30.1322L86.5705 27.5823L85.6317 27.238ZM87.9357 20.956V19.956H87.2373L86.9969 20.6117L87.9357 20.956ZM90.3455 20.5646L84.0455 35.3786L85.8859 36.1614L92.1859 21.3474L90.3455 20.5646ZM84.9657 34.77H81.6537V36.77H84.9657V34.77ZM82.5654 36.1809L84.8694 31.0689L83.046 30.2471L80.742 35.3591L82.5654 36.1809ZM84.8793 30.2699L80.7933 20.5679L78.9501 21.3441L83.0361 31.0461L84.8793 30.2699ZM79.8717 21.956H83.3097V19.956H79.8717V21.956ZM82.3717 21.3027L84.6937 27.5847L86.5697 26.8913L84.2477 20.6093L82.3717 21.3027ZM86.5705 27.5823L88.8745 21.3003L86.9969 20.6117L84.6929 26.8937L86.5705 27.5823ZM87.9357 21.956H91.2657V19.956H87.9357V21.956ZM110.503 18.364H111.503V17.364H110.503V18.364ZM110.503 31V32H111.503V31H110.503ZM107.425 31H106.425V32H107.425V31ZM107.425 23.422H108.425L106.488 23.0726L107.425 23.422ZM104.599 31V32H105.294L105.536 31.3494L104.599 31ZM102.115 31L101.179 31.3506L101.422 32H102.115V31ZM99.2712 23.404L100.208 23.0534L98.2712 23.404H99.2712ZM99.2712 31V32H100.271V31H99.2712ZM96.1932 31H95.1932V32H96.1932V31ZM96.1932 18.364V17.364H95.1932V18.364H96.1932ZM99.8292 18.364L100.756 17.9883L100.503 17.364H99.8292V18.364ZM103.375 27.112L102.448 27.4877L103.38 29.7856L104.303 27.4844L103.375 27.112ZM106.885 18.364V17.364H106.209L105.957 17.9916L106.885 18.364ZM109.503 18.364V31H111.503V18.364H109.503ZM110.503 30H107.425V32H110.503V30ZM108.425 31V23.422H106.425V31H108.425ZM106.488 23.0726L103.662 30.6506L105.536 31.3494L108.362 23.7714L106.488 23.0726ZM104.599 30H102.115V32H104.599V30ZM103.052 30.6494L100.208 23.0534L98.3347 23.7546L101.179 31.3506L103.052 30.6494ZM98.2712 23.404V31H100.271V23.404H98.2712ZM99.2712 30H96.1932V32H99.2712V30ZM97.1932 31V18.364H95.1932V31H97.1932ZM96.1932 19.364H99.8292V17.364H96.1932V19.364ZM98.9024 18.7397L102.448 27.4877L104.302 26.7363L100.756 17.9883L98.9024 18.7397ZM104.303 27.4844L107.813 18.7364L105.957 17.9916L102.447 26.7396L104.303 27.4844ZM106.885 19.364H110.503V17.364H106.885V19.364ZM114.625 30.514L114.151 31.3945L114.156 31.3975L114.625 30.514ZM112.771 28.714L111.902 29.2087L111.907 29.2187L112.771 28.714ZM112.789 23.26L113.652 23.7647L113.655 23.759L112.789 23.26ZM114.661 21.442L115.129 22.3255L115.129 22.3255L114.661 21.442ZM119.989 21.442L119.52 22.3255L119.52 22.3255L119.989 21.442ZM121.861 23.26L120.994 23.759L120.997 23.7647L121.861 23.26ZM121.843 28.714L120.982 28.2053L120.979 28.2093L121.843 28.714ZM119.953 30.514L119.49 29.6276L119.484 29.6305L119.953 30.514ZM118.783 27.832L118.066 27.1349L118.061 27.1401L118.056 27.1454L118.783 27.832ZM118.801 24.124L118.063 24.7997L118.069 24.8052L118.074 24.8106L118.801 24.124ZM115.831 24.124L116.558 24.8101L116.568 24.7997L115.831 24.124ZM115.813 27.832L115.065 28.4964L115.07 28.5021L115.075 28.5077L115.813 27.832ZM117.289 30.144C116.452 30.144 115.727 29.9667 115.093 29.6305L114.156 31.3975C115.106 31.9013 116.158 32.144 117.289 32.144V30.144ZM115.099 29.6335C114.484 29.3025 113.999 28.834 113.634 28.2093L111.907 29.2187C112.454 30.154 113.205 30.8855 114.151 31.3945L115.099 29.6335ZM113.64 28.2193C113.295 27.6131 113.105 26.8771 113.105 25.978H111.105C111.105 27.1669 111.359 28.2549 111.902 29.2087L113.64 28.2193ZM113.105 25.978C113.105 25.0977 113.298 24.3708 113.652 23.7647L111.925 22.7553C111.368 23.7092 111.105 24.7943 111.105 25.978H113.105ZM113.655 23.759C114.019 23.1267 114.507 22.6555 115.129 22.3255L114.192 20.5585C113.231 21.0685 112.47 21.8093 111.922 22.761L113.655 23.759ZM115.129 22.3255C115.763 21.9893 116.488 21.812 117.325 21.812V19.812C116.194 19.812 115.142 20.0547 114.192 20.5585L115.129 22.3255ZM117.325 21.812C118.162 21.812 118.886 21.9893 119.52 22.3255L120.457 20.5585C119.507 20.0547 118.456 19.812 117.325 19.812V21.812ZM119.52 22.3255C120.143 22.6555 120.63 23.1267 120.994 23.759L122.727 22.761C122.179 21.8093 121.419 21.0685 120.457 20.5585L119.52 22.3255ZM120.997 23.7647C121.352 24.3708 121.545 25.0977 121.545 25.978H123.545C123.545 24.7943 123.282 23.7092 122.724 22.7553L120.997 23.7647ZM121.545 25.978C121.545 26.8533 121.348 27.5855 120.982 28.2053L122.704 29.2227C123.273 28.2585 123.545 27.1667 123.545 25.978H121.545ZM120.979 28.2093C120.619 28.8263 120.128 29.2943 119.49 29.6277L120.416 31.4003C121.386 30.8937 122.155 30.1617 122.706 29.2187L120.979 28.2093ZM119.484 29.6305C118.85 29.9667 118.126 30.144 117.289 30.144V32.144C118.42 32.144 119.471 31.9013 120.421 31.3975L119.484 29.6305ZM117.289 29.48C118.155 29.48 118.915 29.1482 119.51 28.5186L118.056 27.1454C117.834 27.3798 117.598 27.48 117.289 27.48V29.48ZM119.5 28.5291C120.155 27.8548 120.413 26.9528 120.413 25.978H118.413C118.413 26.6112 118.25 26.9452 118.066 27.1349L119.5 28.5291ZM120.413 25.978C120.413 25.0105 120.165 24.1125 119.528 23.4374L118.074 24.8106C118.252 24.9995 118.413 25.3375 118.413 25.978H120.413ZM119.538 23.4483C118.952 22.8089 118.192 22.476 117.325 22.476V24.476C117.633 24.476 117.858 24.5751 118.063 24.7997L119.538 23.4483ZM117.325 22.476C116.452 22.476 115.684 22.8041 115.093 23.4483L116.568 24.7997C116.769 24.5799 116.997 24.476 117.325 24.476V22.476ZM115.103 23.438C114.471 24.1084 114.237 25.0127 114.237 25.978H116.237C116.237 25.3113 116.398 24.9796 116.558 24.81L115.103 23.438ZM114.237 25.978C114.237 26.9312 114.465 27.8206 115.065 28.4964L116.56 27.1676C116.393 26.9794 116.237 26.6328 116.237 25.978H114.237ZM115.075 28.5077C115.662 29.1471 116.421 29.48 117.289 29.48V27.48C116.98 27.48 116.756 27.3809 116.55 27.1563L115.075 28.5077ZM133.106 22L132.365 22.6715L132.37 22.6776L132.376 22.6836L133.106 22ZM134.168 31V32H135.168V31H134.168ZM131.108 31H130.108V32H131.108V31ZM130.586 23.98L129.855 24.6632L129.855 24.6632L130.586 23.98ZM127.778 23.98L128.508 24.6632L128.508 24.6632L127.778 23.98ZM127.256 31V32H128.256V31H127.256ZM124.178 31H123.178V32H124.178V31ZM124.178 20.956V19.956H123.178V20.956H124.178ZM127.256 20.956H128.256V19.956H127.256V20.956ZM127.256 22.288H126.256V25.4504L128.074 22.8629L127.256 22.288ZM128.516 21.244L128.946 22.1465L128.955 22.1425L128.963 22.1384L128.516 21.244ZM130.298 21.848C131.233 21.848 131.885 22.1419 132.365 22.6715L133.847 21.3285C132.934 20.3221 131.714 19.848 130.298 19.848V21.848ZM132.376 22.6836C132.865 23.2058 133.168 23.9787 133.168 25.132H135.168C135.168 23.6213 134.762 22.3062 133.835 21.3164L132.376 22.6836ZM133.168 25.132V31H135.168V25.132H133.168ZM134.168 30H131.108V32H134.168V30ZM132.108 31V25.546H130.108V31H132.108ZM132.108 25.546C132.108 24.7034 131.887 23.907 131.316 23.2968L129.855 24.6632C129.981 24.797 130.108 25.0446 130.108 25.546H132.108ZM131.316 23.2968C130.749 22.6909 130 22.422 129.182 22.422V24.422C129.54 24.422 129.726 24.5251 129.855 24.6632L131.316 23.2968ZM129.182 22.422C128.364 22.422 127.614 22.6909 127.047 23.2968L128.508 24.6632C128.637 24.5251 128.824 24.422 129.182 24.422V22.422ZM127.047 23.2968C126.477 23.907 126.256 24.7034 126.256 25.546H128.256C128.256 25.0446 128.383 24.797 128.508 24.6632L127.047 23.2968ZM126.256 25.546V31H128.256V25.546H126.256ZM127.256 30H124.178V32H127.256V30ZM125.178 31V20.956H123.178V31H125.178ZM124.178 21.956H127.256V19.956H124.178V21.956ZM126.256 20.956V22.288H128.256V20.956H126.256ZM128.074 22.8629C128.279 22.5705 128.561 22.3304 128.946 22.1465L128.085 20.3415C127.414 20.6616 126.856 21.1175 126.437 21.7131L128.074 22.8629ZM128.963 22.1384C129.336 21.9517 129.774 21.848 130.298 21.848V19.848C129.501 19.848 128.751 20.0083 128.068 20.3496L128.963 22.1384ZM145.72 26.716V27.716H146.612L146.714 26.8306L145.72 26.716ZM138.754 26.716V25.716H137.675L137.757 26.7927L138.754 26.716ZM139.348 28.156L138.654 28.8754L138.666 28.8876L138.68 28.8993L139.348 28.156ZM142.264 27.67V26.67H141.625L141.357 27.2499L142.264 27.67ZM145.54 27.67L146.51 27.9167L146.827 26.67H145.54V27.67ZM144.622 29.452L143.857 28.8083L143.849 28.8188L144.622 29.452ZM142.984 30.694L143.398 31.6044L142.984 30.694ZM138.142 30.514L137.663 31.3914L137.663 31.3914L138.142 30.514ZM136.342 28.714L137.217 28.2295L137.217 28.2295L136.342 28.714ZM136.324 23.242L135.45 22.7575L135.444 22.7679L136.324 23.242ZM138.124 21.442L138.604 22.3194L138.604 22.3194L138.124 21.442ZM143.362 21.424L142.888 22.304L142.888 22.304L143.362 21.424ZM145.126 23.17L144.252 23.6557L144.258 23.6661L145.126 23.17ZM142.624 25.006V26.006H143.624V25.006H142.624ZM142.084 23.746L142.739 22.9903L142.739 22.9903L142.084 23.746ZM139.42 23.728L138.78 22.9598L138.774 22.9651L138.768 22.9706L139.42 23.728ZM138.772 25.006L137.784 24.8556L137.609 26.006H138.772V25.006ZM144.774 25.816C144.774 26.0624 144.759 26.3241 144.727 26.6014L146.714 26.8306C146.754 26.4839 146.774 26.1456 146.774 25.816H144.774ZM145.72 25.716H138.754V27.716H145.72V25.716ZM137.757 26.7927C137.819 27.5872 138.083 28.3243 138.654 28.8754L140.043 27.4366C139.918 27.3157 139.786 27.0928 139.752 26.6393L137.757 26.7927ZM138.68 28.8993C139.236 29.4 139.917 29.642 140.662 29.642V27.642C140.376 27.642 140.181 27.56 140.017 27.4127L138.68 28.8993ZM140.662 29.642C141.187 29.642 141.702 29.5304 142.158 29.2539C142.618 28.9746 142.951 28.5678 143.172 28.0901L141.357 27.2499C141.278 27.4202 141.194 27.4994 141.12 27.5441C141.042 27.5916 140.905 27.642 140.662 27.642V29.642ZM142.264 28.67H145.54V26.67H142.264V28.67ZM144.571 27.4233C144.441 27.9354 144.205 28.3941 143.857 28.8084L145.388 30.0956C145.927 29.4539 146.304 28.7246 146.51 27.9167L144.571 27.4233ZM143.849 28.8188C143.52 29.2206 143.1 29.5431 142.571 29.7836L143.398 31.6044C144.189 31.2449 144.861 30.7394 145.396 30.0852L143.849 28.8188ZM142.571 29.7836C142.056 30.0176 141.462 30.144 140.77 30.144V32.144C141.711 32.144 142.593 31.9704 143.398 31.6044L142.571 29.7836ZM140.77 30.144C139.933 30.144 139.226 29.9666 138.622 29.6366L137.663 31.3914C138.595 31.9014 139.64 32.144 140.77 32.144V30.144ZM138.622 29.6366C138.024 29.3093 137.559 28.847 137.217 28.2295L135.468 29.1985C135.99 30.141 136.725 30.8787 137.663 31.3914L138.622 29.6366ZM137.217 28.2295C136.88 27.6213 136.694 26.8816 136.694 25.978H134.694C134.694 27.1624 134.941 28.2467 135.468 29.1985L137.217 28.2295ZM136.694 25.978C136.694 25.0699 136.876 24.3264 137.205 23.7161L135.444 22.7679C134.933 23.7176 134.694 24.7981 134.694 25.978H136.694ZM137.199 23.7265C137.541 23.109 138.006 22.6467 138.604 22.3194L137.645 20.5646C136.707 21.0773 135.972 21.815 135.45 22.7575L137.199 23.7265ZM138.604 22.3194C139.206 21.9904 139.919 21.812 140.77 21.812V19.812C139.63 19.812 138.579 20.0536 137.645 20.5646L138.604 22.3194ZM140.77 21.812C141.599 21.812 142.296 21.9846 142.888 22.304L143.837 20.544C142.917 20.0474 141.886 19.812 140.77 19.812V21.812ZM142.888 22.304C143.474 22.6207 143.924 23.0653 144.252 23.6556L146.001 22.6844C145.489 21.7627 144.763 21.0433 143.837 20.544L142.888 22.304ZM144.258 23.6661C144.591 24.2487 144.774 24.9543 144.774 25.816H146.774C146.774 24.6617 146.526 23.6033 145.995 22.6739L144.258 23.6661ZM143.624 25.006C143.624 24.2233 143.344 23.5142 142.739 22.9903L141.43 24.5017C141.545 24.6018 141.624 24.7327 141.624 25.006H143.624ZM142.739 22.9903C142.173 22.4997 141.481 22.278 140.734 22.278V24.278C141.068 24.278 141.276 24.3683 141.43 24.5017L142.739 22.9903ZM140.734 22.278C140.01 22.278 139.339 22.4946 138.78 22.9598L140.061 24.4962C140.222 24.3614 140.427 24.278 140.734 24.278V22.278ZM138.768 22.9706C138.202 23.4581 137.896 24.1206 137.784 24.8556L139.761 25.1564C139.817 24.7874 139.943 24.5979 140.073 24.4854L138.768 22.9706ZM138.772 26.006H142.624V24.006H138.772V26.006ZM157.658 20.956L158.579 21.3474L159.17 19.956H157.658V20.956ZM151.358 35.77V36.77H152.02L152.279 36.1614L151.358 35.77ZM148.046 35.77L147.135 35.3591L146.499 36.77H148.046V35.77ZM150.35 30.658L151.262 31.0689L151.441 30.6715L151.272 30.2699L150.35 30.658ZM146.264 20.956V19.956H144.758L145.343 21.3441L146.264 20.956ZM149.702 20.956L150.64 20.6093L150.399 19.956H149.702V20.956ZM152.024 27.238L151.086 27.5847L152.028 30.1322L152.963 27.5823L152.024 27.238ZM154.328 20.956V19.956H153.63L153.389 20.6117L154.328 20.956ZM156.738 20.5646L150.438 35.3786L152.279 36.1614L158.579 21.3474L156.738 20.5646ZM151.358 34.77H148.046V36.77H151.358V34.77ZM148.958 36.1809L151.262 31.0689L149.439 30.2471L147.135 35.3591L148.958 36.1809ZM151.272 30.2699L147.186 20.5679L145.343 21.3441L149.429 31.0461L151.272 30.2699ZM146.264 21.956H149.702V19.956H146.264V21.956ZM148.764 21.3027L151.086 27.5847L152.962 26.8913L150.64 20.6093L148.764 21.3027ZM152.963 27.5823L155.267 21.3003L153.389 20.6117L151.085 26.8937L152.963 27.5823ZM154.328 21.956H157.658V19.956H154.328V21.956Z" fill="white" fill-opacity="0.1"/>
<defs>
<clipPath id="clip0">
<rect width="34.7297" height="34.9714" fill="white" transform="translate(8.68243 8.74286)"/>
</clipPath>
</defs>
</svg>
